<svg width="303" height="294" viewBox="0 0 303 294" fill="none" xmlns="http://www.w3.org/2000/svg">
<path d="M31.2301 104.23C84.3201 57.23 138.43 23.37 184.28 25.47C320.67 31.74 290.91 243.83 203.11 242.32C148.86 241.39 149.67 204.32 103.42 198.68C88.1802 196.82 65.2002 194.93 43.1702 192.16C-21.5798 184.04 -1.55986 133.26 31.2301 104.23Z" fill="#FFB2B2"/>
<path d="M206.53 146.87L86.0098 196.79C92.3798 197.44 98.4098 198.07 103.42 198.68C149.67 204.33 148.86 241.4 203.11 242.33C236.6 242.9 261.63 212.33 272.23 174.08L206.53 146.87Z" fill="#FF014E"/>
<path d="M90.4995 146.87L10.4395 180.03C17.2195 185.9 27.7995 190.24 43.1595 192.17C65.1595 194.93 88.1596 196.82 103.42 198.68C149.67 204.33 148.859 241.4 203.109 242.33C223.4 242.67 240.579 231.6 253.329 214.33L90.4995 146.87Z" fill="#A20031"/>
<path d="M110.029 101.35C110.027 104.384 111.076 107.324 112.999 109.67C114.922 112.017 117.599 113.623 120.574 114.217C123.549 114.811 126.637 114.354 129.313 112.926C131.99 111.497 134.087 109.184 135.249 106.382C136.411 103.58 136.566 100.462 135.686 97.5587C134.806 94.6556 132.947 92.1473 130.425 90.4614C127.903 88.7756 124.875 88.0165 121.856 88.3135C118.837 88.6105 116.014 89.9451 113.869 92.0901C111.412 94.5456 110.031 97.8764 110.029 101.35Z" fill="white"/>
<path d="M102.961 107.6C102.961 108.957 103.363 110.283 104.117 111.411C104.871 112.539 105.942 113.419 107.196 113.938C108.449 114.457 109.829 114.593 111.159 114.328C112.49 114.064 113.712 113.41 114.672 112.451C115.631 111.492 116.285 110.269 116.549 108.939C116.814 107.608 116.678 106.228 116.159 104.975C115.64 103.721 114.76 102.65 113.632 101.896C112.504 101.143 111.178 100.74 109.821 100.74C108.002 100.743 106.259 101.467 104.973 102.752C103.687 104.038 102.964 105.782 102.961 107.6Z" fill="white"/>
<path d="M128.811 104.83C128.811 106.735 129.375 108.597 130.434 110.18C131.492 111.764 132.996 112.998 134.755 113.727C136.515 114.456 138.451 114.647 140.319 114.275C142.187 113.904 143.903 112.986 145.25 111.64C146.597 110.293 147.514 108.577 147.885 106.709C148.257 104.841 148.066 102.905 147.338 101.145C146.609 99.3854 145.374 97.8813 143.791 96.8231C142.207 95.765 140.345 95.2002 138.441 95.2002C135.887 95.2028 133.439 96.2183 131.634 98.0237C129.829 99.8291 128.813 102.277 128.811 104.83Z" fill="white"/>
<path d="M196.19 134.97L195.57 136.22C187.23 137.68 178.96 138.87 170.69 140.06C159.49 141.6 151.243 141.66 145.95 140.24C128.47 135.56 115.8 129.89 107.59 123.44C95.3801 113.92 91.0002 101.68 95.0402 86.5802C99.6602 69.3702 104.87 56.2902 110.4 47.2702C118.74 34.1702 129.93 25.2702 143.9 20.7602L128.81 16.7602C124.04 15.4802 120.51 15.9502 117.87 18.3702L104.37 14.7502C105.867 10.4587 108.663 6.73988 112.37 4.1102C116.61 0.990205 120.28 -0.0098002 123.99 0.9802L180.4 16.1002C181.377 16.4778 182.289 17.0077 183.1 17.6701L175.99 29.3902C159.19 27.3902 144.39 29.7202 131.99 35.7702C117.9 42.7702 108.93 54.0002 104.82 69.3602C97.5101 96.6402 109.25 114.26 140.5 122.63C147.92 124.63 156.99 126.77 168.26 129.22C177.63 131.13 187.04 133.09 196.19 134.97Z" fill="#FF014E"/>
<path d="M153.359 79.78C152.74 81.8333 151.834 83.7891 150.67 85.59C149.03 88.59 147.8 89.93 147.01 89.72C145.69 89.36 143.78 88 140.91 84.96C138.22 82.25 136.53 80.1 136.02 78.82C136.728 76.6869 137.738 74.6664 139.02 72.82C140.93 69.93 142.409 68.62 143.469 68.91C144.529 69.2 146.3 71.08 149.17 74.12C152.26 77.5 153.489 79.25 153.359 79.78Z" fill="#FF014E"/>
<path d="M298.931 153.83C298.321 154.83 296.521 156.39 293.261 158C286.451 161.74 277.761 162.3 267.081 159.86C258.229 157.843 249.752 154.441 241.961 149.78C237.081 146.96 233.601 143.32 231.771 139.24C230.693 136.999 230.197 134.521 230.33 132.038C230.463 129.554 231.22 127.144 232.531 125.03C235.651 119.62 238.941 115.94 242.771 113.73L243.771 114.34C242.105 116.041 240.63 117.919 239.371 119.94C234.641 128.14 238.681 136.05 251.581 143.5C258.259 147.415 265.419 150.441 272.881 152.5C282.281 155.14 289.881 154.87 295.311 151.5C295.621 149.35 295.311 146.35 294.681 142.5C295.594 140.933 297.674 139.343 300.921 137.73C303.831 141.35 303.061 146.68 298.931 153.83Z" fill="#A20031"/>
<path d="M275.93 113.11C275.122 114.384 274.139 115.539 273.01 116.54C271.18 118.54 270.01 119.25 269.53 118.95C268.66 118.45 267.53 116.84 266.1 114.41C264.64 111.71 263.92 110.13 263.9 108.96C264.786 107.64 265.861 106.457 267.09 105.45C269 103.76 270.3 103.11 271 103.52C271.52 103.82 272.69 105.42 274 108.3C275.51 111.01 276.23 112.58 275.93 113.11Z" fill="#A20031"/>
<path d="M288.719 117.94C287.919 119.217 286.939 120.372 285.809 121.37C283.969 123.37 282.809 124.08 282.149 123.68C281.489 123.28 280.289 121.68 278.899 119.24C277.439 116.54 276.719 114.96 276.699 113.79C277.579 112.466 278.655 111.282 279.889 110.28C281.619 108.49 282.889 107.84 283.789 108.35C284.309 108.65 285.309 110.15 286.789 113.13C288.299 115.84 288.919 117.59 288.719 117.94Z" fill="#A20031"/>
<path d="M47.0897 179.57C46.8177 180.344 46.3272 181.022 45.6776 181.522C45.028 182.023 44.2471 182.324 43.4297 182.39C45.5097 168.9 47.9297 155.82 50.4297 142.51C52.821 129.106 54.4204 115.572 55.2197 101.98L64.4397 98.98C62.4097 129.35 56.7597 156.23 47.0897 179.57Z" fill="#F9F9F9"/>
<path d="M228.69 78.6302C228.692 82.7683 227.466 86.8139 225.169 90.2555C222.871 93.6971 219.605 96.38 215.782 97.965C211.96 99.5499 207.753 99.9655 203.694 99.1594C199.636 98.3534 195.907 96.3617 192.98 93.4364C190.054 90.5111 188.06 86.7836 187.252 82.7252C186.444 78.6669 186.858 74.4601 188.441 70.6368C190.024 66.8136 192.705 63.5457 196.146 61.2466C199.586 58.9474 203.632 57.7202 207.77 57.7202C213.316 57.7202 218.636 59.9229 222.559 63.844C226.482 67.7651 228.687 73.0837 228.69 78.6302Z" fill="white"/>
<path d="M240.711 85.7203C240.701 88.9212 239.581 92.0197 237.543 94.4874C235.504 96.9551 232.672 98.6391 229.531 99.2524C226.389 99.8657 223.132 99.3703 220.315 97.8506C217.498 96.3308 215.295 93.8811 214.082 90.9188C212.869 87.9565 212.721 84.6652 213.664 81.6062C214.607 78.5472 216.581 75.9098 219.251 74.1439C221.92 72.3779 225.12 71.5927 228.304 71.9221C231.488 72.2515 234.459 73.6752 236.711 75.9503C239.283 78.5505 240.721 82.063 240.711 85.7203Z" fill="white"/>
<path d="M202.49 85.7199C202.492 88.92 201.384 92.0216 199.355 94.4964C197.327 96.9712 194.502 98.6659 191.364 99.2916C188.226 99.9173 184.968 99.4353 182.145 97.9278C179.322 96.4203 177.11 93.9806 175.884 91.0245C174.659 88.0684 174.497 84.7788 175.425 81.7164C176.353 78.6539 178.315 76.0082 180.975 74.23C183.636 72.4519 186.831 71.6514 190.015 71.965C193.2 72.2786 196.177 73.687 198.44 75.9499C201.03 78.542 202.487 82.0555 202.49 85.7199Z" fill="white"/>
<path d="M151.15 202.03V282.92C108.73 235.05 67.8496 248.41 67.8496 248.41L96.5197 175.87C96.5197 175.87 129.64 170.22 151.15 202.03Z" fill="#FF7C8B"/>
<path d="M215.109 245.77C198.109 245.98 172.829 252.43 151.109 282.92V293.64H159.249C171.039 280.54 195.169 260.05 228.579 263.58L234.399 248.41C228.155 246.49 221.64 245.598 215.109 245.77Z" fill="#FF7C8B"/>
<path d="M151.15 202.03V282.92C193.56 235.05 234.44 248.41 234.44 248.41L205.78 175.87C205.78 175.87 172.66 170.22 151.15 202.03Z" fill="white"/>
<path d="M87.1796 245.77C80.6356 245.594 74.1066 246.486 67.8496 248.41L73.6697 263.58C107.08 260.05 131.21 280.58 143 293.64H151.15V282.92C129.46 252.43 104.16 245.98 87.1796 245.77Z" fill="#FF014E"/>
<path d="M199.7 185.74C199.7 185.74 175.79 185.95 159.11 209.11C158.981 209.29 158.902 209.501 158.879 209.721C158.857 209.941 158.893 210.163 158.983 210.365C159.073 210.567 159.214 210.742 159.392 210.873C159.57 211.003 159.78 211.085 160 211.11C160.225 211.13 160.452 211.088 160.657 210.99C160.861 210.891 161.035 210.739 161.16 210.55C177.16 188.3 199.71 188.23 199.71 188.23C199.937 188.234 200.161 188.178 200.359 188.067C200.558 187.957 200.723 187.796 200.84 187.6C200.955 187.407 201.016 187.186 201.016 186.96C201.016 186.735 200.955 186.514 200.84 186.32C200.718 186.131 200.548 185.978 200.348 185.876C200.148 185.774 199.924 185.728 199.7 185.74ZM202.95 200.02C202.95 200.02 178.37 198.92 159.95 221.1C159.797 221.27 159.693 221.477 159.649 221.7C159.605 221.924 159.622 222.155 159.699 222.37C159.776 222.584 159.91 222.774 160.086 222.918C160.262 223.063 160.474 223.157 160.7 223.19C160.923 223.225 161.151 223.199 161.361 223.115C161.57 223.03 161.753 222.89 161.89 222.71C179.55 201.41 202.8 202.54 202.8 202.54C203.134 202.555 203.46 202.436 203.707 202.21C203.953 201.984 204.1 201.669 204.115 201.335C204.129 201.001 204.01 200.675 203.784 200.428C203.558 200.182 203.244 200.035 202.91 200.02H202.95ZM207.01 213.33C198.366 213.424 189.837 215.321 181.97 218.901C174.102 222.481 167.068 227.665 161.32 234.12C161.163 234.283 161.053 234.485 161.002 234.705C160.951 234.925 160.96 235.155 161.03 235.37C161.102 235.592 161.233 235.789 161.409 235.94C161.585 236.092 161.8 236.192 162.03 236.23C162.253 236.272 162.483 236.255 162.697 236.179C162.912 236.104 163.102 235.973 163.25 235.8C168.732 229.604 175.451 224.623 182.974 221.179C190.496 217.735 198.656 215.902 206.93 215.8C207.264 215.816 207.591 215.699 207.838 215.474C208.086 215.249 208.234 214.935 208.25 214.6C208.266 214.266 208.148 213.939 207.923 213.692C207.698 213.444 207.384 213.296 207.05 213.28L207.01 213.33ZM209.37 226.59C209.37 226.59 181.25 226.72 161.46 249.53C161.311 249.698 161.21 249.902 161.166 250.122C161.122 250.341 161.137 250.568 161.21 250.78C161.283 250.991 161.411 251.178 161.58 251.323C161.748 251.468 161.953 251.567 162.171 251.608C162.39 251.65 162.616 251.633 162.826 251.56C163.037 251.486 163.224 251.359 163.37 251.19C182.37 229.27 209.37 229.12 209.37 229.12C209.596 229.125 209.819 229.07 210.016 228.959C210.213 228.848 210.377 228.686 210.49 228.49C210.603 228.294 210.662 228.072 210.662 227.845C210.662 227.619 210.603 227.396 210.49 227.2C210.372 227.007 210.206 226.849 210.007 226.742C209.809 226.635 209.585 226.582 209.36 226.59H209.37Z" fill="#FF7C8B"/>
<path d="M102.6 185.74C102.374 185.733 102.149 185.787 101.951 185.896C101.752 186.005 101.586 186.166 101.47 186.36C101.355 186.554 101.294 186.775 101.294 187C101.294 187.226 101.355 187.447 101.47 187.64C101.585 187.837 101.75 187.999 101.949 188.11C102.148 188.221 102.373 188.276 102.6 188.27C102.6 188.27 125.13 188.34 141.15 210.59C141.277 210.778 141.451 210.928 141.655 211.027C141.858 211.125 142.085 211.168 142.31 211.15C142.53 211.125 142.739 211.043 142.918 210.913C143.096 210.782 143.237 210.607 143.327 210.405C143.417 210.203 143.453 209.981 143.43 209.761C143.408 209.541 143.329 209.33 143.2 209.15C126.51 185.95 102.6 185.74 102.6 185.74ZM99.3402 200.02C99.1747 200.028 99.0125 200.069 98.8627 200.139C98.7128 200.21 98.5782 200.309 98.4668 200.432C98.3554 200.554 98.2692 200.698 98.2131 200.854C98.1571 201.009 98.1324 201.175 98.1403 201.34C98.1481 201.506 98.1886 201.668 98.2592 201.818C98.3298 201.968 98.4292 202.102 98.5518 202.214C98.6743 202.325 98.8176 202.411 98.9735 202.467C99.1294 202.523 99.2947 202.548 99.4602 202.54C99.4602 202.54 122.71 201.41 140.36 222.71C140.574 222.976 140.884 223.145 141.222 223.182C141.561 223.218 141.9 223.119 142.165 222.905C142.431 222.692 142.6 222.382 142.637 222.043C142.673 221.705 142.574 221.366 142.36 221.1C123.93 198.92 99.3602 200.02 99.3602 200.02H99.3402ZM95.3402 213.33C95.1101 213.33 94.884 213.39 94.6853 213.506C94.4866 213.622 94.3226 213.79 94.2102 213.99C94.1035 214.193 94.0537 214.421 94.066 214.65C94.0784 214.879 94.1524 215.1 94.2803 215.29C94.4046 215.483 94.5796 215.637 94.7861 215.735C94.9926 215.834 95.2225 215.874 95.4502 215.85C103.725 215.952 111.887 217.783 119.411 221.228C126.936 224.672 133.656 229.653 139.14 235.85C139.286 236.024 139.476 236.155 139.69 236.23C139.904 236.305 140.134 236.322 140.357 236.278C140.579 236.234 140.786 236.131 140.955 235.98C141.125 235.83 141.251 235.636 141.32 235.42C141.389 235.205 141.399 234.975 141.348 234.755C141.297 234.535 141.187 234.333 141.03 234.17C135.278 227.704 128.238 222.511 120.361 218.926C112.484 215.34 103.944 213.441 95.2903 213.35L95.3402 213.33ZM92.9802 226.59C92.8046 226.575 92.6278 226.596 92.4608 226.652C92.2938 226.709 92.1404 226.799 92.0104 226.918C91.8803 227.037 91.7765 227.182 91.7054 227.343C91.6344 227.505 91.5977 227.679 91.5977 227.855C91.5977 228.032 91.6344 228.206 91.7054 228.367C91.7765 228.529 91.8803 228.673 92.0104 228.792C92.1404 228.911 92.2938 229.002 92.4608 229.058C92.6278 229.115 92.8046 229.136 92.9802 229.12C92.9802 229.12 119.98 229.26 138.98 251.19C139.127 251.356 139.315 251.481 139.525 251.552C139.734 251.624 139.959 251.64 140.177 251.599C140.394 251.557 140.598 251.46 140.766 251.317C140.935 251.173 141.064 250.989 141.14 250.78C141.209 250.569 141.223 250.343 141.181 250.124C141.139 249.906 141.042 249.702 140.9 249.53C121.05 226.72 92.9302 226.59 92.9302 226.59H92.9802Z" fill="white"/>
</svg>
