<svg width="300" height="311" viewBox="0 0 300 311" fill="none" xmlns="http://www.w3.org/2000/svg">
<path d="M12.4695 190.57C26.8395 160.23 35.1195 136.18 41.4695 106.57C57.2495 33.4399 105.64 23.9 155.39 62.36C176.89 78.98 203.589 91.58 224.309 80.36C254.789 63.83 276.309 73.7499 271.709 103.6C267.109 133.45 267.71 149.94 281.29 166.09C325.96 219.41 280.44 268.58 212.78 257.27C184.48 252.54 157.529 255.95 109.549 273.36C30.3594 302.06 -25.9505 271.64 12.4695 190.57Z" fill="#FFC662"/>
<path fill-rule="evenodd" clip-rule="evenodd" d="M74.6604 0.860107C71.1704 4.41011 69.4204 6.51005 69.4204 10.9301C69.4091 14.2441 70.6154 17.4469 72.8103 19.9301C72.989 20.1076 73.1309 20.3187 73.2277 20.5513C73.3244 20.7838 73.3743 21.0333 73.3743 21.2852C73.3743 21.537 73.3244 21.7864 73.2277 22.0189C73.1309 22.2515 72.989 22.4626 72.8103 22.6401C69.0003 27.1901 67.2804 31.6401 67.2804 33.8201V64.04H65.0603V62.8301H63.0603V70.4501L66.3804 74.1401V104.14H62.2003V103.03H59.7504V110.33L65.2704 119.87V156.64C65.2704 160.94 65.2703 165 63.1903 168.07C61.1103 171.14 60.8403 175.86 60.8403 175.86V194.78C60.4946 194.976 60.092 195.046 59.7003 194.98C59.0103 194.72 59.4503 193.51 58.3203 193.59C57.1903 193.67 55.3203 195.73 55.3203 195.73V283.91C71.2003 284.03 89.6603 280.54 109.58 273.32C149.29 258.91 174.58 254.1 198.17 255.55V205.44H196.81V197.58C196.81 194.13 192.88 193.76 192.88 193.76H180.41C185.023 188.876 187.586 182.408 187.57 175.69C187.57 164.35 182.7 159.05 177.1 153.45C172.683 149.124 167.845 145.248 162.66 141.88C156.32 137.75 147.03 134.07 144.08 130.88V121.65C147.64 121.05 149.08 118.83 149.08 116.17C149.08 112.17 143.95 110.81 143.95 110.81C143.95 110.81 146.95 112.29 146.95 115.47C146.95 116.77 145.95 118.6 141.95 118.6C137.95 118.6 136.95 116.77 136.95 115.47C136.95 112.55 140.05 110.87 140.05 110.87C140.05 110.87 134.88 112.11 134.88 116.17C134.88 118.89 136.39 121.17 140.11 121.69V130.94C137.11 134.14 127.87 137.81 121.58 141.94C116.389 145.301 111.549 149.173 107.13 153.5C101.53 159.1 96.6704 164.4 96.6704 175.74C96.6668 182.375 99.1666 188.768 103.67 193.64H88.3904V175.85C88.3904 175.85 88.1304 171.14 86.0404 168.06C83.9504 164.98 83.9503 160.93 83.9503 156.63V119.86L89.4603 110.32V103.02H87.0204V104.13H82.8503V74.1301L86.1604 70.4401V62.8201H84.1604V64.0302H81.9403V33.8101C81.9403 31.5901 80.2204 27.1701 76.4104 22.6301C76.0544 22.269 75.8547 21.7823 75.8547 21.2751C75.8547 20.768 76.0544 20.2812 76.4104 19.92C78.6008 17.435 79.8035 14.2327 79.7904 10.92C79.7904 6.50004 78.0403 4.6401 74.5503 0.850098C74.6703 0.870098 74.6804 0.860107 74.6604 0.860107ZM68.4303 49.8601H69.5503V63.9501H68.4303V49.8601ZM72.8503 49.8601H76.0204V63.9501H72.8503V49.8601ZM79.3403 49.8601H80.4603V63.9501H79.3604L79.3403 49.8601Z" fill="#FF6B34"/>
<path fill-rule="evenodd" clip-rule="evenodd" d="M223.129 104.28C217.874 104.28 212.737 105.839 208.367 108.758C203.998 111.678 200.592 115.827 198.581 120.682C196.57 125.537 196.044 130.88 197.069 136.034C198.094 141.188 200.625 145.922 204.341 149.638C208.057 153.354 212.791 155.884 217.945 156.91C223.099 157.935 228.441 157.409 233.296 155.398C238.151 153.387 242.301 149.981 245.221 145.612C248.14 141.242 249.699 136.105 249.699 130.85C249.699 130.23 249.699 129.61 249.629 128.99C249.374 133.476 247.832 137.794 245.187 141.426C242.542 145.059 238.907 147.852 234.716 149.472C230.525 151.092 225.956 151.47 221.556 150.561C217.155 149.652 213.11 147.494 209.904 144.346C206.698 141.197 204.468 137.192 203.479 132.809C202.491 128.426 202.786 123.851 204.33 119.631C205.874 115.411 208.601 111.726 212.185 109.016C215.769 106.306 220.058 104.686 224.539 104.35C224.069 104.35 223.589 104.29 223.129 104.28Z" fill="white"/>
<path fill-rule="evenodd" clip-rule="evenodd" d="M242.04 123.58L236.969 120.4L231.9 123.58L233.359 117.78L228.77 113.94L234.74 113.54L236.969 107.99L239.189 113.54L245.17 113.94L240.569 117.78L242.04 123.58Z" fill="white"/>
<path fill-rule="evenodd" clip-rule="evenodd" d="M184.83 294.33L214.3 278.36V310.29L184.83 294.33Z" fill="#C6391A"/>
<path fill-rule="evenodd" clip-rule="evenodd" d="M184.83 294.33L155.35 278.36V310.29L184.83 294.33Z" fill="#C6391A"/>
<path fill-rule="evenodd" clip-rule="evenodd" d="M184.83 289.65L214.3 273.69V305.62L184.83 289.65Z" fill="#FF6B34"/>
<path fill-rule="evenodd" clip-rule="evenodd" d="M184.83 289.65L155.35 273.69V305.62L184.83 289.65Z" fill="#FF6B34"/>
<path fill-rule="evenodd" clip-rule="evenodd" d="M261.49 190.61V252.8L184.83 294.33V232.12L261.49 190.61Z" fill="#FF9C3E"/>
<path fill-rule="evenodd" clip-rule="evenodd" d="M108.17 190.61V252.8L184.83 294.33V232.12L108.17 190.61Z" fill="#FF9C3E"/>
<path fill-rule="evenodd" clip-rule="evenodd" d="M261.49 185.93V248.13L184.83 289.65V227.45L261.49 185.93Z" fill="#C6391A"/>
<path fill-rule="evenodd" clip-rule="evenodd" d="M108.17 185.93V248.13L184.83 289.65V227.45L108.17 185.93Z" fill="#C6391A"/>
<path fill-rule="evenodd" clip-rule="evenodd" d="M118.82 184.46V246.66C137.94 250.39 164.02 259.66 184.82 282.41V220.21C164.02 197.44 137.94 188.19 118.82 184.46Z" fill="#FF9C3E"/>
<path fill-rule="evenodd" clip-rule="evenodd" d="M250.84 184.46V246.66C231.72 250.39 205.64 259.66 184.84 282.41V220.21C205.64 197.44 231.72 188.19 250.84 184.46Z" fill="#FF6B34"/>
<path fill-rule="evenodd" clip-rule="evenodd" d="M127.119 173.01V235.21C145.049 239.87 166.899 249.44 184.829 269.06V206.86C166.889 187.23 145.049 177.67 127.119 173.01Z" fill="white"/>
<path fill-rule="evenodd" clip-rule="evenodd" d="M242.54 173.01V235.2C224.61 239.87 202.76 249.44 184.83 269.06V206.85C202.77 187.23 224.61 177.67 242.54 173.01Z" fill="#FF9C3E"/>
<path fill-rule="evenodd" clip-rule="evenodd" d="M242.539 235.2L250.839 246.65V184.46L242.539 173V235.2Z" fill="#FF6B34"/>
<path fill-rule="evenodd" clip-rule="evenodd" d="M118.82 246.65L127.12 235.2V173L118.82 184.46V246.65Z" fill="#FFC662"/>
</svg>
