<svg width="265" height="314" viewBox="0 0 265 314" fill="none" xmlns="http://www.w3.org/2000/svg">
<path fill-rule="evenodd" clip-rule="evenodd" d="M143.72 42.8098C112.24 62.2498 84.0195 38.4298 56.1395 35.8098C7.92949 31.2898 -14.3206 85.9598 10.7794 121.69C25.0194 141.96 43.1695 160.08 37.1895 190.13C21.8595 267.13 81.5395 279.74 131.629 271.13C196.139 259.98 257.309 207.77 264.099 137.38C266.433 115.015 262.954 92.4261 253.999 71.7998C231.359 19.6298 177.18 22.1598 143.72 42.8098Z" fill="#FFB2B2"/>
<path fill-rule="evenodd" clip-rule="evenodd" d="M227.63 83.5798C227.632 89.5333 225.569 95.3032 221.793 99.9061C218.017 104.509 212.762 107.66 206.923 108.822C201.084 109.985 195.023 109.086 189.772 106.28C184.522 103.474 180.406 98.9339 178.128 93.4335C175.85 87.9332 175.55 81.813 177.279 76.116C179.007 70.4191 182.658 65.4979 187.609 62.1912C192.56 58.8845 198.504 57.3969 204.429 57.982C210.353 58.5671 215.892 61.1887 220.1 65.3999C222.487 67.7873 224.381 70.6216 225.673 73.7409C226.965 76.8603 227.63 80.2035 227.63 83.5798Z" fill="#FF7C8B"/>
<path fill-rule="evenodd" clip-rule="evenodd" d="M241.509 95.8197C241.525 98.9406 240.458 101.97 238.49 104.393C236.523 106.815 233.776 108.48 230.718 109.105C227.66 109.729 224.48 109.274 221.721 107.817C218.961 106.359 216.792 103.99 215.583 101.113C214.374 98.2357 214.2 95.0283 215.09 92.0372C215.981 89.0461 217.882 86.4564 220.468 84.7093C223.054 82.9622 226.166 82.1658 229.273 82.4559C232.38 82.7459 235.291 84.1043 237.509 86.2997C238.769 87.5458 239.77 89.028 240.457 90.6615C241.143 92.2951 241.501 94.0479 241.509 95.8197Z" fill="#FF7C8B"/>
<path fill-rule="evenodd" clip-rule="evenodd" d="M190.759 90.3497C190.76 94.7246 189.244 98.9645 186.469 102.347C183.694 105.729 179.832 108.045 175.541 108.899C171.25 109.753 166.796 109.093 162.938 107.031C159.079 104.969 156.055 101.633 154.38 97.5911C152.705 93.5494 152.484 89.052 153.753 84.8653C155.023 80.6786 157.705 77.0616 161.342 74.6306C164.979 72.1995 169.347 71.1049 173.701 71.5333C178.055 71.9616 182.126 73.8864 185.22 76.9797C186.977 78.734 188.371 80.8182 189.322 83.1125C190.273 85.4068 190.761 87.8662 190.759 90.3497Z" fill="#FF7C8B"/>
<path fill-rule="evenodd" clip-rule="evenodd" d="M157.769 137.12C157.769 140.68 156.714 144.16 154.736 147.12C152.758 150.08 149.947 152.388 146.658 153.75C143.369 155.112 139.75 155.469 136.258 154.774C132.766 154.08 129.559 152.365 127.042 149.848C124.524 147.331 122.81 144.123 122.115 140.632C121.421 137.14 121.777 133.521 123.14 130.232C124.502 126.943 126.809 124.132 129.769 122.154C132.729 120.176 136.209 119.12 139.769 119.12C144.543 119.12 149.122 121.017 152.497 124.392C155.873 127.768 157.769 132.346 157.769 137.12Z" fill="#FF7C8B"/>
<path fill-rule="evenodd" clip-rule="evenodd" d="M168.129 143.23C168.129 145.588 167.43 147.892 166.12 149.853C164.811 151.813 162.949 153.341 160.771 154.243C158.593 155.145 156.196 155.381 153.884 154.921C151.571 154.461 149.448 153.326 147.781 151.659C146.113 149.992 144.978 147.868 144.518 145.556C144.058 143.243 144.294 140.847 145.197 138.668C146.099 136.49 147.626 134.629 149.587 133.319C151.547 132.009 153.852 131.31 156.209 131.31C159.371 131.31 162.403 132.566 164.638 134.801C166.873 137.037 168.129 140.069 168.129 143.23Z" fill="#FF7C8B"/>
<path d="M123.339 155.115C129.922 155.075 135.226 149.705 135.186 143.122C135.146 136.539 129.776 131.235 123.193 131.275C116.61 131.316 111.306 136.685 111.346 143.268C111.386 149.851 116.756 155.155 123.339 155.115Z" fill="#FF7C8B"/>
<path fill-rule="evenodd" clip-rule="evenodd" d="M75.6099 12.0498C76.8057 12.0472 77.9902 12.2808 79.0955 12.7372C80.2007 13.1936 81.2048 13.8638 82.0503 14.7094C82.8959 15.5549 83.5661 16.5591 84.0225 17.6643C84.4789 18.7696 84.7126 19.9542 84.71 21.1499V26.0598C84.71 28.4733 83.751 30.7879 82.0445 32.4945C80.3379 34.2011 78.0234 35.1599 75.6099 35.1599C73.1964 35.1599 70.8819 34.2011 69.1753 32.4945C67.4687 30.7879 66.5098 28.4733 66.5098 26.0598V21.1499C66.5072 19.9542 66.7409 18.7696 67.1973 17.6643C67.6537 16.5591 68.3239 15.5549 69.1695 14.7094C70.015 13.8638 71.019 13.1936 72.1243 12.7372C73.2295 12.2808 74.4141 12.0472 75.6099 12.0498Z" fill="#A20031"/>
<path fill-rule="evenodd" clip-rule="evenodd" d="M75.6094 0.209961C76.1398 0.209961 76.6486 0.420704 77.0237 0.795776C77.3988 1.17085 77.6094 1.67953 77.6094 2.20996V13.14C77.6094 13.6704 77.3988 14.1791 77.0237 14.5542C76.6486 14.9293 76.1398 15.14 75.6094 15.14C75.0789 15.14 74.5701 14.9293 74.1951 14.5542C73.82 14.1791 73.6094 13.6704 73.6094 13.14V2.20996C73.6094 1.67953 73.82 1.17085 74.1951 0.795776C74.5701 0.420704 75.0789 0.209961 75.6094 0.209961Z" fill="#A20031"/>
<path fill-rule="evenodd" clip-rule="evenodd" d="M71.6002 25.3501L60.4902 160.67H75.6102H90.7302L79.6302 25.3501H75.6102H71.6002Z" fill="#A20031"/>
<path fill-rule="evenodd" clip-rule="evenodd" d="M58.8699 159.21H92.3599C93.4266 159.262 94.4323 159.723 95.1687 160.496C95.9052 161.27 96.3159 162.297 96.3159 163.365C96.3159 164.433 95.9052 165.46 95.1687 166.234C94.4323 167.007 93.4266 167.468 92.3599 167.52H58.8799C57.8132 167.468 56.8075 167.007 56.071 166.234C55.3346 165.46 54.9238 164.433 54.9238 163.365C54.9238 162.297 55.3346 161.27 56.071 160.496C56.8075 159.723 57.8132 159.262 58.8799 159.21H58.8699Z" fill="#A20031"/>
<path fill-rule="evenodd" clip-rule="evenodd" d="M47.9993 197.71H103.219C105.312 197.71 107.319 198.541 108.798 200.021C110.278 201.501 111.109 203.507 111.109 205.6C111.109 207.693 110.278 209.699 108.798 211.179C107.319 212.659 105.312 213.49 103.219 213.49H47.9993C45.9067 213.49 43.9001 212.659 42.4204 211.179C40.9407 209.699 40.1094 207.693 40.1094 205.6C40.1094 203.507 40.9407 201.501 42.4204 200.021C43.9001 198.541 45.9067 197.71 47.9993 197.71Z" fill="#A20031"/>
<path fill-rule="evenodd" clip-rule="evenodd" d="M57.1992 166.73L46.4492 206.82H62.269L67.6492 166.73H57.1992ZM83.5691 166.73L88.9492 206.82H104.769L94.019 166.73H83.5691Z" fill="#A20031"/>
<path fill-rule="evenodd" clip-rule="evenodd" d="M46.8696 207.53L36.9297 231.53C38.734 238.903 42.1492 245.784 46.9297 251.68C49.0516 244.82 53.5631 238.95 59.645 235.134C65.7269 231.318 72.9757 229.809 80.075 230.883C87.1742 231.956 93.653 235.54 98.3347 240.984C103.016 246.428 105.591 253.37 105.59 260.55H126.36L104.41 207.55H46.9197L46.8696 207.53Z" fill="#A20031"/>
<path fill-rule="evenodd" clip-rule="evenodd" d="M131.159 222.35V303.24C88.7494 255.37 47.8594 268.74 47.8594 268.74L76.5293 196.19C76.5293 196.19 109.649 190.58 131.159 222.35Z" fill="#FF7C8B"/>
<path fill-rule="evenodd" clip-rule="evenodd" d="M195.119 266.14C178.119 266.34 152.849 272.79 131.119 303.28V314H139.259C151.049 300.9 175.179 280.41 208.589 283.95L214.419 268.78C208.173 266.853 201.653 265.961 195.119 266.14Z" fill="#FF7C8B"/>
<path fill-rule="evenodd" clip-rule="evenodd" d="M131.16 222.35V303.24C173.57 255.37 214.46 268.74 214.46 268.74L185.79 196.19C185.79 196.19 152.67 190.58 131.16 222.35Z" fill="white"/>
<path fill-rule="evenodd" clip-rule="evenodd" d="M67.1992 266.14C60.6551 265.962 54.1258 266.854 47.8691 268.78L53.6792 283.95C87.0892 280.41 111.229 300.95 123.019 314H131.159V303.28C109.469 272.79 84.1692 266.35 67.1992 266.14Z" fill="#FF014E"/>
<path d="M179.709 206.1C179.709 206.1 155.799 206.31 139.119 229.48C138.986 229.607 138.883 229.762 138.816 229.933C138.75 230.105 138.721 230.289 138.733 230.472C138.745 230.656 138.797 230.834 138.885 230.995C138.974 231.157 139.096 231.297 139.244 231.406C139.392 231.515 139.563 231.59 139.743 231.626C139.923 231.662 140.109 231.658 140.288 231.615C140.467 231.571 140.634 231.489 140.777 231.375C140.921 231.26 141.038 231.115 141.119 230.95C157.119 208.7 179.679 208.63 179.679 208.63C179.905 208.636 180.128 208.58 180.325 208.47C180.522 208.36 180.686 208.199 180.8 208.004C180.913 207.808 180.972 207.586 180.97 207.36C180.968 207.135 180.906 206.913 180.789 206.72C180.676 206.534 180.518 206.38 180.329 206.271C180.14 206.163 179.927 206.104 179.709 206.1ZM182.969 220.38C182.969 220.38 158.379 219.29 139.969 241.46C139.82 241.63 139.719 241.838 139.677 242.06C139.635 242.283 139.653 242.513 139.729 242.726C139.806 242.939 139.938 243.128 140.112 243.273C140.286 243.418 140.496 243.513 140.719 243.55C140.944 243.584 141.174 243.557 141.384 243.473C141.595 243.388 141.78 243.249 141.919 243.07C159.569 221.77 182.819 222.91 182.819 222.91C183.14 222.901 183.445 222.772 183.673 222.547C183.902 222.323 184.038 222.021 184.053 221.701C184.068 221.381 183.962 221.067 183.755 220.822C183.549 220.577 183.257 220.419 182.939 220.38H182.969ZM186.969 233.69C178.326 233.786 169.798 235.685 161.931 239.265C154.063 242.844 147.03 248.027 141.279 254.48C141.169 254.604 141.084 254.749 141.03 254.906C140.975 255.063 140.952 255.229 140.962 255.394C140.972 255.56 141.014 255.722 141.087 255.872C141.159 256.021 141.26 256.155 141.384 256.265C141.508 256.375 141.653 256.46 141.81 256.515C141.967 256.569 142.133 256.592 142.299 256.582C142.464 256.573 142.626 256.53 142.776 256.458C142.925 256.385 143.059 256.284 143.169 256.16C148.652 249.964 155.371 244.983 162.893 241.539C170.416 238.094 178.576 236.262 186.849 236.16C187.078 236.186 187.308 236.148 187.517 236.051C187.725 235.954 187.902 235.801 188.029 235.61C188.164 235.418 188.243 235.193 188.258 234.959C188.272 234.726 188.222 234.492 188.112 234.285C188.003 234.078 187.838 233.906 187.636 233.786C187.434 233.667 187.204 233.606 186.969 233.61V233.69ZM189.329 246.95C189.329 246.95 161.209 247.08 141.419 269.95C141.276 270.118 141.178 270.32 141.137 270.538C141.095 270.755 141.111 270.979 141.183 271.188C141.255 271.397 141.38 271.584 141.546 271.73C141.712 271.876 141.913 271.976 142.129 272.02C142.349 272.063 142.575 272.046 142.786 271.973C142.997 271.899 143.184 271.77 143.329 271.6C162.329 249.68 189.329 249.53 189.329 249.53C189.555 249.534 189.777 249.478 189.974 249.368C190.17 249.258 190.334 249.097 190.448 248.903C190.562 248.708 190.622 248.487 190.623 248.262C190.623 248.036 190.563 247.815 190.449 247.62C190.342 247.423 190.185 247.257 189.994 247.139C189.803 247.022 189.584 246.956 189.359 246.95H189.329Z" fill="#FF7C8B"/>
<path d="M82.6096 206.1C82.3836 206.096 82.1606 206.151 81.9624 206.26C81.7642 206.369 81.5979 206.527 81.4797 206.72C81.3645 206.915 81.3037 207.138 81.3037 207.365C81.3037 207.592 81.3645 207.814 81.4797 208.01C81.5979 208.202 81.7642 208.361 81.9624 208.47C82.1606 208.578 82.3836 208.634 82.6096 208.63C82.6096 208.63 105.14 208.7 121.16 230.95C121.284 231.14 121.458 231.293 121.663 231.392C121.867 231.492 122.095 231.534 122.321 231.514C122.548 231.495 122.765 231.415 122.949 231.282C123.134 231.149 123.279 230.969 123.37 230.76C123.464 230.553 123.499 230.323 123.471 230.097C123.443 229.871 123.352 229.657 123.21 229.48C106.52 206.35 82.6096 206.1 82.6096 206.1ZM79.3596 220.35C79.0417 220.389 78.7502 220.547 78.5437 220.792C78.3372 221.037 78.2309 221.35 78.2461 221.67C78.2613 221.99 78.397 222.293 78.6257 222.517C78.8545 222.741 79.1595 222.871 79.4797 222.88C79.4797 222.88 102.73 221.74 120.38 243.04C120.519 243.219 120.704 243.358 120.915 243.442C121.125 243.527 121.355 243.553 121.58 243.52C121.803 243.483 122.013 243.387 122.187 243.242C122.361 243.098 122.493 242.909 122.57 242.695C122.646 242.482 122.664 242.253 122.622 242.03C122.58 241.807 122.479 241.6 122.33 241.43C103.94 219.29 79.3596 220.35 79.3596 220.35ZM75.3596 233.66C75.1942 233.668 75.0319 233.708 74.8821 233.779C74.7322 233.849 74.5978 233.949 74.4863 234.071C74.3749 234.194 74.2887 234.337 74.2327 234.493C74.1766 234.649 74.1518 234.814 74.1597 234.98C74.1675 235.145 74.208 235.308 74.2786 235.457C74.3492 235.607 74.4485 235.742 74.571 235.853C74.6936 235.965 74.837 236.051 74.9929 236.107C75.1488 236.163 75.3143 236.188 75.4797 236.18C83.7529 236.282 91.9129 238.114 99.4355 241.558C106.958 245.003 113.677 249.983 119.16 256.18C119.306 256.353 119.496 256.484 119.71 256.559C119.924 256.635 120.154 256.651 120.376 256.607C120.599 256.563 120.805 256.461 120.975 256.31C121.144 256.159 121.27 255.966 121.34 255.75C121.409 255.535 121.418 255.305 121.367 255.085C121.316 254.865 121.206 254.663 121.05 254.5C115.294 248.035 108.252 242.845 100.373 239.261C92.4948 235.678 83.9543 233.78 75.2996 233.69L75.3596 233.66ZM72.9995 246.92C72.7732 246.914 72.5493 246.968 72.3508 247.077C72.1523 247.186 71.9863 247.346 71.8696 247.54C71.7543 247.733 71.6934 247.954 71.6934 248.18C71.6934 248.405 71.7543 248.626 71.8696 248.82C71.9858 249.015 72.1514 249.176 72.3499 249.287C72.5483 249.397 72.7724 249.454 72.9995 249.45C72.9995 249.45 99.9995 249.6 119 271.52C119.144 271.691 119.331 271.821 119.542 271.896C119.752 271.972 119.98 271.99 120.2 271.95C120.426 271.91 120.637 271.812 120.813 271.664C120.988 271.517 121.122 271.326 121.2 271.11C121.27 270.899 121.284 270.674 121.24 270.456C121.196 270.239 121.096 270.037 120.95 269.87C101.06 247.08 72.9397 246.95 72.9397 246.95L72.9995 246.92Z" fill="white"/>
<path d="M258 189.15C258 202.203 253.474 214.852 245.194 224.942C236.913 235.032 225.391 241.939 212.589 244.486C199.787 247.032 186.498 245.062 174.986 238.909C163.474 232.757 154.452 222.803 149.456 210.744C144.46 198.685 143.8 185.267 147.588 172.776C151.376 160.285 159.378 149.494 170.231 142.241C181.083 134.989 194.114 131.723 207.104 133.001C220.094 134.279 232.239 140.022 241.47 149.25C246.712 154.488 250.87 160.709 253.706 167.555C256.543 174.401 258.002 181.74 258 189.15Z" fill="white"/>
<path d="M224.359 137.56V240.71C234.371 236.308 242.885 229.088 248.862 219.93C254.84 210.771 258.023 200.072 258.023 189.135C258.023 178.199 254.84 167.499 248.862 158.341C242.885 149.182 234.371 141.962 224.359 137.56Z" fill="#A20031"/>
<path d="M178.81 137.6C168.798 142 160.283 149.219 154.304 158.377C148.326 167.534 145.143 178.234 145.143 189.17C145.143 200.106 148.326 210.806 154.304 219.964C160.283 229.121 168.798 236.34 178.81 240.74V137.6Z" fill="#FF014E"/>
<path d="M118.44 65.7798C114.895 65.7798 111.431 66.8307 108.484 68.7998C105.537 70.7689 103.24 73.5676 101.884 76.842C100.527 80.1165 100.172 83.7197 100.864 87.1958C101.555 90.6719 103.262 93.8649 105.768 96.3711C108.274 98.8773 111.467 100.584 114.943 101.275C118.42 101.967 122.023 101.612 125.297 100.256C128.572 98.8993 131.37 96.6024 133.339 93.6555C135.309 90.7086 136.359 87.2439 136.359 83.6997C136.36 82.6161 136.26 81.5347 136.059 80.4697C135.58 82.5581 134.55 84.4799 133.076 86.0355C131.602 87.5912 129.739 88.7239 127.68 89.316C125.621 89.9082 123.441 89.9381 121.366 89.4027C119.291 88.8673 117.397 87.7861 115.882 86.2715C114.366 84.7569 113.283 82.8641 112.747 80.7897C112.21 78.7153 112.238 76.5349 112.829 74.4752C113.42 72.4155 114.551 70.5515 116.106 69.0769C117.66 67.6023 119.582 66.5709 121.67 66.0897C120.605 65.8861 119.524 65.7824 118.44 65.7798Z" fill="white"/>
</svg>
