<svg width="307" height="304" viewBox="0 0 307 304" fill="none" xmlns="http://www.w3.org/2000/svg">
<path d="M262.91 218.13C230.61 228.42 225.29 247.56 216.04 261.27C187.64 303.36 158.54 293.77 139.18 258.4C112.94 210.46 70.8605 212.91 44.3405 191.18C-78.3695 90.63 148.85 -0.819988 254.64 96.88C305.42 143.78 316.94 200.9 262.91 218.13Z" fill="#A5BFFF"/>
<path d="M112.202 104.935L69.4759 208.086C66.703 214.78 69.882 222.455 76.5764 225.228L150.117 255.689C156.812 258.462 164.486 255.283 167.259 248.589L209.986 145.438C212.759 138.743 209.58 131.069 202.885 128.296L129.345 97.8341C122.65 95.0612 114.975 98.2402 112.202 104.935Z" fill="#3747E4"/>
<path d="M118.26 93.2499L191.8 123.71C193.394 124.367 194.843 125.333 196.064 126.551C197.284 127.77 198.252 129.217 198.912 130.81C199.571 132.404 199.91 134.112 199.908 135.836C199.906 137.561 199.563 139.268 198.9 140.86L156.17 244C155.515 245.595 154.551 247.044 153.334 248.265C152.116 249.486 150.67 250.455 149.077 251.115C147.484 251.774 145.776 252.113 144.052 252.11C142.328 252.108 140.621 251.764 139.03 251.1L65.4901 220.64C63.8961 219.984 62.4473 219.019 61.2271 217.802C60.0068 216.584 59.039 215.138 58.3793 213.545C57.7196 211.952 57.381 210.245 57.3828 208.521C57.3847 206.798 57.727 205.091 58.3901 203.5L101.12 100.35C101.776 98.7559 102.741 97.3072 103.958 96.0869C105.176 94.8667 106.623 93.8988 108.215 93.2391C109.808 92.5794 111.515 92.2408 113.239 92.2427C114.962 92.2445 116.669 92.5868 118.26 93.2499Z" fill="#5A7DFF"/>
<path d="M107.62 108.137L97.0039 133.766L170.471 164.197L181.086 138.568L107.62 108.137Z" fill="#474DFF"/>
<path d="M111.465 109.729L100.85 135.357L174.316 165.788L184.932 140.16L111.465 109.729Z" fill="#79A1FF"/>
<path d="M94.8373 152.537L92.0246 159.328C91.0672 161.639 92.1648 164.289 94.4762 165.246L106.311 170.148C108.622 171.106 111.272 170.008 112.23 167.697L115.043 160.906C116 158.595 114.902 155.945 112.591 154.988L100.756 150.085C98.4446 149.128 95.7947 150.226 94.8373 152.537Z" fill="#3747E4"/>
<path d="M122.484 164.003L119.671 170.793C118.714 173.105 119.811 175.755 122.123 176.712L133.958 181.614C136.269 182.572 138.919 181.474 139.876 179.163L142.689 172.372C143.646 170.061 142.549 167.411 140.237 166.453L128.403 161.551C126.091 160.594 123.441 161.691 122.484 164.003Z" fill="#3747E4"/>
<path d="M150.142 175.453L147.329 182.244C146.372 184.555 147.469 187.205 149.781 188.162L161.616 193.064C163.927 194.022 166.577 192.924 167.534 190.613L170.347 183.822C171.305 181.511 170.207 178.861 167.896 177.904L156.061 173.001C153.749 172.044 151.099 173.142 150.142 175.453Z" fill="#3747E4"/>
<path d="M85.7064 174.577L82.8937 181.367C81.9363 183.678 83.0339 186.328 85.3453 187.286L97.1802 192.188C99.4916 193.145 102.142 192.048 103.099 189.736L105.912 182.946C106.869 180.634 105.771 177.985 103.46 177.027L91.6251 172.125C89.3137 171.168 86.6639 172.265 85.7064 174.577Z" fill="#3747E4"/>
<path d="M113.355 186.033L110.542 192.824C109.585 195.135 110.682 197.785 112.994 198.742L124.829 203.645C127.14 204.602 129.79 203.504 130.747 201.193L133.56 194.402C134.518 192.091 133.42 189.441 131.108 188.484L119.274 183.581C116.962 182.624 114.312 183.722 113.355 186.033Z" fill="#3747E4"/>
<path d="M76.5834 196.626L73.7707 203.416C72.8132 205.728 73.9109 208.378 76.2223 209.335L88.0572 214.237C90.3686 215.195 93.0185 214.097 93.9759 211.786L96.7886 204.995C97.746 202.684 96.6484 200.034 94.337 199.076L82.5021 194.174C80.1907 193.217 77.5408 194.314 76.5834 196.626Z" fill="#3747E4"/>
<path d="M104.234 208.072L101.421 214.863C100.464 217.174 101.561 219.824 103.873 220.781L115.708 225.684C118.019 226.641 120.669 225.543 121.626 223.232L124.439 216.441C125.396 214.13 124.299 211.48 121.987 210.523L110.153 205.621C107.841 204.663 105.191 205.761 104.234 208.072Z" fill="#3747E4"/>
<path d="M147.07 195.1L158.62 199.89C159.19 200.123 159.708 200.467 160.144 200.902C160.581 201.336 160.927 201.853 161.163 202.421C161.399 202.99 161.52 203.6 161.52 204.216C161.519 204.832 161.397 205.442 161.16 206.01L149.36 234.54C149.125 235.11 148.78 235.629 148.345 236.065C147.91 236.502 147.392 236.848 146.823 237.084C146.253 237.32 145.642 237.441 145.026 237.441C144.409 237.44 143.799 237.317 143.23 237.08L131.66 232.35C131.09 232.115 130.573 231.769 130.137 231.333C129.702 230.897 129.357 230.38 129.122 229.81C128.887 229.241 128.766 228.631 128.768 228.014C128.769 227.398 128.892 226.788 129.13 226.22L140.95 197.69C141.178 197.116 141.519 196.592 141.951 196.151C142.383 195.709 142.899 195.357 143.468 195.116C144.038 194.875 144.649 194.75 145.267 194.747C145.886 194.744 146.498 194.864 147.07 195.1Z" fill="#3747E4"/>
<path d="M90.9193 150.929L88.1066 157.719C87.1492 160.031 88.2468 162.68 90.5582 163.638L102.393 168.54C104.705 169.497 107.354 168.4 108.312 166.088L111.125 159.298C112.082 156.987 110.984 154.337 108.673 153.379L96.8381 148.477C94.5267 147.52 91.8767 148.617 90.9193 150.929Z" fill="white"/>
<path d="M118.57 162.365L115.757 169.156C114.8 171.467 115.897 174.117 118.209 175.074L130.044 179.977C132.355 180.934 135.005 179.836 135.962 177.525L138.775 170.734C139.732 168.423 138.635 165.773 136.323 164.816L124.488 159.914C122.177 158.956 119.527 160.054 118.57 162.365Z" fill="white"/>
<path d="M146.216 173.831L143.403 180.621C142.446 182.933 143.544 185.583 145.855 186.54L157.69 191.442C160.001 192.4 162.651 191.302 163.609 188.991L166.421 182.2C167.379 179.889 166.281 177.239 163.97 176.281L152.135 171.379C149.824 170.422 147.174 171.52 146.216 173.831Z" fill="white"/>
<path d="M81.7982 172.968L78.9855 179.759C78.0281 182.07 79.1257 184.72 81.4371 185.677L93.272 190.58C95.5834 191.537 98.2333 190.439 99.1907 188.128L102.003 181.337C102.961 179.026 101.863 176.376 99.5518 175.419L87.7169 170.517C85.4055 169.559 82.7557 170.657 81.7982 172.968Z" fill="white"/>
<path d="M109.439 184.405L106.626 191.195C105.669 193.507 106.766 196.156 109.078 197.114L120.913 202.016C123.224 202.974 125.874 201.876 126.831 199.564L129.644 192.774C130.602 190.463 129.504 187.813 127.192 186.855L115.358 181.953C113.046 180.996 110.396 182.093 109.439 184.405Z" fill="white"/>
<path d="M72.6674 194.997L69.8546 201.788C68.8972 204.099 69.9949 206.749 72.3063 207.707L84.1412 212.609C86.4526 213.566 89.1025 212.469 90.0599 210.157L92.8726 203.367C93.83 201.055 92.7324 198.405 90.421 197.448L78.5861 192.546C76.2747 191.588 73.6248 192.686 72.6674 194.997Z" fill="white"/>
<path d="M100.316 206.454L97.5031 213.245C96.5457 215.556 97.6433 218.206 99.9547 219.163L111.79 224.065C114.101 225.023 116.751 223.925 117.708 221.614L120.521 214.823C121.478 212.512 120.381 209.862 118.069 208.905L106.235 204.002C103.923 203.045 101.273 204.143 100.316 206.454Z" fill="white"/>
<path d="M143.15 193.48L154.7 198.26C155.269 198.495 155.787 198.841 156.223 199.276C156.658 199.712 157.004 200.229 157.24 200.798C157.476 201.368 157.597 201.978 157.597 202.594C157.597 203.21 157.476 203.821 157.24 204.39L145.42 232.92C145.185 233.489 144.841 234.006 144.406 234.442C143.971 234.878 143.455 235.223 142.887 235.459C142.318 235.695 141.709 235.817 141.093 235.817C140.478 235.817 139.868 235.696 139.3 235.46L127.75 230.67C127.18 230.436 126.662 230.093 126.225 229.658C125.789 229.224 125.442 228.707 125.206 228.138C124.97 227.569 124.849 226.96 124.85 226.344C124.85 225.728 124.973 225.118 125.21 224.55L137.03 196.02C137.263 195.45 137.607 194.932 138.041 194.495C138.476 194.059 138.992 193.712 139.561 193.476C140.13 193.24 140.74 193.119 141.356 193.12C141.972 193.12 142.581 193.243 143.15 193.48Z" fill="#9BB9FF"/>
<path d="M135.42 119.65L110.01 139.16L150.37 155.88L175.78 136.37L135.42 119.65Z" fill="#A5BFFF"/>
<path d="M75.2408 121.51C75.7079 122.314 76.0115 123.202 76.1341 124.123C76.2567 125.045 76.1959 125.981 75.9552 126.879C75.7145 127.777 75.2987 128.618 74.7315 129.354C74.1644 130.091 73.4573 130.708 72.6508 131.17L51.0708 143.63C49.4423 144.569 47.5076 144.823 45.6923 144.335C43.8769 143.847 42.3296 142.659 41.3908 141.03C40.4519 139.402 40.1984 137.467 40.686 135.652C41.1736 133.836 42.3624 132.289 43.9908 131.35L65.5808 118.89C66.3844 118.417 67.2744 118.11 68.1985 117.986C69.1226 117.862 70.0621 117.924 70.9619 118.168C71.8618 118.412 72.7038 118.833 73.4386 119.407C74.1734 119.981 74.7861 120.696 75.2408 121.51Z" fill="#79A1FF"/>
<path d="M70.9705 123.98C71.4363 124.784 71.7388 125.672 71.8608 126.593C71.9827 127.514 71.9216 128.45 71.6809 129.347C71.4403 130.245 71.0249 131.086 70.4586 131.823C69.8922 132.559 69.186 133.177 68.3805 133.64L46.7905 146.1C45.1661 147.037 43.2357 147.291 41.4241 146.805C39.6125 146.32 38.068 145.134 37.1305 143.51C36.193 141.885 35.9392 139.955 36.4249 138.143C36.9106 136.332 38.096 134.787 39.7205 133.85L61.3605 121.35C62.9839 120.425 64.9078 120.183 66.7097 120.676C68.5115 121.169 70.044 122.358 70.9705 123.98Z" fill="white"/>
<path d="M65.4308 104.51C65.8966 105.314 66.1991 106.202 66.321 107.123C66.4429 108.044 66.3818 108.98 66.1412 109.878C65.9006 110.775 65.4852 111.616 64.9188 112.353C64.3525 113.089 63.6463 113.707 62.8408 114.17L41.2508 126.63C40.4445 127.094 39.5546 127.395 38.632 127.516C37.7094 127.636 36.7722 127.573 35.8738 127.331C34.9754 127.089 34.1334 126.673 33.3959 126.106C32.6585 125.538 32.04 124.831 31.5758 124.025C31.1115 123.219 30.8107 122.329 30.6904 121.406C30.57 120.484 30.6326 119.546 30.8745 118.648C31.1164 117.75 31.5329 116.908 32.1002 116.17C32.6675 115.433 33.3745 114.814 34.1808 114.35L55.7708 101.89C56.5765 101.426 57.4661 101.125 58.3884 101.005C59.3107 100.885 60.2476 100.949 61.1453 101.192C62.0429 101.436 62.8836 101.854 63.619 102.424C64.3545 102.993 64.9702 103.702 65.4308 104.51Z" fill="#79A1FF"/>
<path d="M61.1497 106.98C61.6168 107.784 61.9204 108.672 62.043 109.593C62.1656 110.514 62.1048 111.451 61.8641 112.349C61.6234 113.247 61.2075 114.088 60.6404 114.824C60.0733 115.561 59.3662 116.178 58.5597 116.64L36.9797 129.1C35.3552 130.039 33.4243 130.294 31.6118 129.809C29.7993 129.324 28.2535 128.139 27.3146 126.515C26.3758 124.891 26.1207 122.96 26.6055 121.147C27.0903 119.335 28.2752 117.789 29.8997 116.85L51.4897 104.35C52.2939 103.878 53.1844 103.571 54.1089 103.448C55.0334 103.324 55.9732 103.387 56.8731 103.632C57.7731 103.877 58.615 104.299 59.3493 104.874C60.0837 105.449 60.6958 106.165 61.1497 106.98Z" fill="white"/>
<path d="M248.86 6.34961C242.576 6.34961 236.434 8.21286 231.209 11.7038C225.985 15.1947 221.913 20.1565 219.508 25.9617C217.104 31.7669 216.474 38.1549 217.7 44.3176C218.926 50.4804 221.952 56.1413 226.395 60.5844C230.838 65.0275 236.499 68.0533 242.662 69.2792C248.825 70.505 255.212 69.8758 261.018 67.4713C266.823 65.0667 271.785 60.9946 275.276 55.7701C278.767 50.5455 280.63 44.4031 280.63 38.1196H248.86V6.34961Z" fill="#9BB9FF"/>
<path d="M248.859 6.34961V38.1196H280.629C280.631 33.9472 279.81 29.8153 278.214 25.9602C276.618 22.1051 274.277 18.6023 271.327 15.6519C268.377 12.7015 264.874 10.3614 261.019 8.76526C257.164 7.16913 253.032 6.3483 248.859 6.34961Z" fill="#5A7DFF"/>
<path d="M96.7303 258.75C96.9621 260.471 96.8515 262.221 96.4049 263.899C95.9583 265.577 95.1844 267.15 94.1279 268.528C93.0713 269.906 91.7528 271.062 90.2482 271.929C88.7436 272.796 87.0825 273.357 85.3603 273.58L39.1803 279.66C35.706 280.117 32.1922 279.176 29.412 277.043C26.6318 274.909 24.8128 271.759 24.3553 268.285C23.8978 264.81 24.8393 261.297 26.9725 258.517C29.1057 255.736 32.256 253.917 35.7303 253.46L81.9003 247.35C83.6235 247.118 85.3755 247.23 87.0554 247.678C88.7352 248.127 90.3097 248.903 91.6882 249.963C93.0667 251.023 94.2219 252.345 95.0872 253.853C95.9526 255.361 96.511 257.025 96.7303 258.75Z" fill="#3747E4"/>
<path d="M87.5901 259.96C87.819 261.681 87.7061 263.431 87.2578 265.109C86.8095 266.786 86.0345 268.359 84.9774 269.737C83.9203 271.114 82.6017 272.27 81.0972 273.137C79.5928 274.004 77.932 274.566 76.2101 274.79L30.0301 280.87C26.5857 281.263 23.1246 280.288 20.3926 278.154C17.6605 276.02 15.8761 272.898 15.4237 269.461C14.9712 266.024 15.887 262.546 17.9738 259.778C20.0605 257.01 23.1512 255.172 26.5801 254.66L72.7601 248.58C74.4814 248.351 76.231 248.464 77.9086 248.912C79.5862 249.361 81.1589 250.136 82.5365 251.193C83.9141 252.25 85.0696 253.569 85.9368 255.073C86.804 256.577 87.3658 258.238 87.5901 259.96Z" fill="#5A7DFF"/>
<path d="M26.5801 254.66C23.1512 255.171 20.0605 257.009 17.9738 259.777C15.887 262.546 14.9712 266.023 15.4237 269.46C15.8761 272.897 17.6605 276.019 20.3926 278.153C23.1246 280.287 26.5857 281.263 30.0301 280.87L43.72 279.06L51.13 251.43L26.5801 254.66Z" fill="#79A1FF"/>
<path d="M277.809 96.2197L249.869 163.67L258.389 167.2C259.993 167.868 261.713 168.212 263.45 168.214C265.187 168.215 266.907 167.873 268.512 167.208C270.116 166.543 271.574 165.567 272.8 164.337C274.027 163.107 274.998 161.646 275.659 160.04L279.509 150.74L280.299 151.06L288.819 154.59C292.036 155.819 295.605 155.745 298.768 154.383C301.93 153.022 304.437 150.48 305.754 147.298C307.071 144.116 307.095 140.547 305.82 137.348C304.546 134.149 302.073 131.574 298.929 130.17L290.409 126.64L289.619 126.32L293.479 117.01C294.148 115.409 294.494 113.693 294.498 111.958C294.502 110.223 294.164 108.505 293.502 106.902C292.841 105.298 291.869 103.841 290.644 102.614C289.418 101.386 287.962 100.413 286.359 99.7498L277.809 96.2197Z" fill="#3747E4"/>
<path d="M277.81 96.2197C279.416 96.8803 280.875 97.8514 282.104 99.0775C283.333 100.304 284.307 101.76 284.972 103.364C285.636 104.968 285.977 106.687 285.975 108.423C285.973 110.159 285.628 111.877 284.96 113.48L267.13 156.48C266.466 158.082 265.492 159.539 264.265 160.765C263.038 161.992 261.581 162.964 259.977 163.628C258.374 164.291 256.656 164.633 254.921 164.632C253.186 164.632 251.468 164.289 249.865 163.625C248.262 162.96 246.806 161.987 245.58 160.759C244.353 159.532 243.381 158.075 242.717 156.472C242.054 154.869 241.712 153.151 241.713 151.416C241.713 149.68 242.056 147.963 242.72 146.36L260.54 103.36C261.201 101.753 262.172 100.293 263.399 99.0636C264.626 97.8342 266.084 96.8596 267.689 96.196C269.295 95.5323 271.015 95.1927 272.752 95.1968C274.489 95.2009 276.208 95.5485 277.81 96.2197Z" fill="#5A7DFF"/>
<path d="M297.56 143.91C296.899 145.515 295.928 146.975 294.702 148.203C293.476 149.432 292.019 150.407 290.415 151.071C288.812 151.736 287.092 152.077 285.356 152.075C283.62 152.073 281.902 151.728 280.3 151.06L237.3 133.24C235.616 132.637 234.072 131.699 232.762 130.482C231.452 129.265 230.402 127.795 229.676 126.161C228.95 124.527 228.563 122.763 228.538 120.975C228.514 119.186 228.853 117.412 229.534 115.759C230.215 114.105 231.224 112.607 232.501 111.355C233.778 110.103 235.295 109.123 236.962 108.475C238.628 107.826 240.409 107.522 242.196 107.582C243.983 107.641 245.74 108.062 247.36 108.82L290.36 126.65C291.969 127.306 293.434 128.274 294.668 129.498C295.902 130.722 296.882 132.178 297.551 133.782C298.22 135.386 298.566 137.107 298.567 138.845C298.569 140.583 298.226 142.305 297.56 143.91Z" fill="#5A7DFF"/>
<path d="M277.809 96.2197C276.208 95.5483 274.489 95.2001 272.753 95.1954C271.016 95.1906 269.296 95.5293 267.691 96.192C266.086 96.8547 264.628 97.8282 263.4 99.0566C262.173 100.285 261.201 101.744 260.539 103.35L256.689 112.66L247.359 108.82C244.351 107.536 240.973 107.414 237.88 108.478C234.787 109.541 232.198 111.714 230.615 114.577C229.032 117.439 228.567 120.787 229.311 123.972C230.054 127.158 231.953 129.954 234.639 131.82L285.759 110.65C286.271 107.699 285.762 104.662 284.317 102.039C282.872 99.4166 280.577 97.364 277.809 96.2197Z" fill="#79A1FF"/>
<path d="M235.98 182.482L199.891 210.174L257.833 285.686L293.922 257.993L235.98 182.482Z" fill="#5A7DFF"/>
<path d="M235.982 182.486L223.701 191.909L281.643 267.421L293.924 257.997L235.982 182.486Z" fill="#3747E4"/>
<path d="M212.17 200.757L199.889 210.181L257.831 285.692L270.112 276.268L212.17 200.757Z" fill="#79A1FF"/>
<path d="M235.979 182.49C237.979 185.04 237.909 188.95 235.909 193.35C233.332 198.276 229.711 202.581 225.298 205.962C220.885 209.344 215.787 211.722 210.359 212.93C205.589 213.72 201.819 212.73 199.859 210.18C197.899 207.63 197.919 203.72 199.919 199.32C202.409 194.339 206.041 190.018 210.519 186.71C220.519 179.07 231.899 177.18 235.979 182.49Z" fill="white"/>
<path d="M223.27 192.24C224.47 193.81 223.06 196.92 220.11 199.18C218.824 200.201 217.317 200.906 215.71 201.24C215.166 201.396 214.591 201.404 214.044 201.261C213.497 201.119 212.998 200.832 212.6 200.43C211.4 198.86 212.81 195.75 215.75 193.49C217.039 192.468 218.549 191.763 220.16 191.43C220.703 191.273 221.279 191.266 221.826 191.408C222.373 191.551 222.872 191.838 223.27 192.24Z" fill="#3747E4"/>
<path d="M261.52 276.98C260.203 277.988 259.171 279.32 258.524 280.847C257.877 282.374 257.638 284.043 257.83 285.69L299.83 303.1L293.89 258C292.482 257.446 290.962 257.234 289.455 257.38C287.949 257.527 286.498 258.028 285.223 258.842C283.947 259.657 282.882 260.761 282.115 262.066C281.348 263.371 280.901 264.839 280.81 266.35C279.462 266.067 278.068 266.078 276.725 266.384C275.381 266.69 274.12 267.282 273.027 268.121C271.934 268.959 271.035 270.024 270.391 271.243C269.748 272.461 269.376 273.804 269.3 275.18C267.95 274.906 266.557 274.925 265.215 275.235C263.873 275.546 262.613 276.141 261.52 276.98Z" fill="#9BB9FF"/>
<path d="M284.609 296.78L297.699 286.73L299.859 303.1L284.609 296.78Z" fill="#3747E4"/>
<path d="M118.53 0.879883L0 69.3499L16.67 73.8198L93.48 94.3499L118.53 0.879883ZM95.79 30.5198L83.36 76.8499L37.03 64.4299L95.79 30.5198Z" fill="#5A7DFF"/>
<path d="M21.1797 60.5898L23.8897 65.2898L26.8897 63.5898L24.1697 58.8798L21.1797 60.5898ZM27.8297 56.7498L30.5497 61.4498L33.4997 59.7498L30.7897 55.0398L27.8297 56.7498ZM34.4797 52.9098L37.1997 57.6098L40.1997 55.8998L37.4797 51.1998L34.4797 52.9098ZM41.1297 49.0698L43.8497 53.7698L46.8497 52.0598L44.1297 47.3598L41.1297 49.0698ZM47.7897 45.2298L50.4997 49.9298L53.4997 48.2198L50.7897 43.5198L47.7897 45.2298ZM54.4397 41.3798L57.1497 46.0898L60.1497 44.3798L57.4397 39.6798L54.4397 41.3798ZM61.0797 37.5498L63.7997 42.2498L66.7997 40.5398L64.0797 35.8298L61.0797 37.5498ZM67.7397 33.7098L70.4497 38.4098L73.4497 36.6998L70.7297 31.9998L67.7397 33.7098ZM74.3897 29.8698L77.0997 34.5698L80.0997 32.8598L77.3897 28.1598L74.3897 29.8698ZM81.0397 26.0298L83.7597 30.7298L86.7597 29.0198L84.0397 24.3198L81.0397 26.0298ZM87.6897 22.1898L90.4097 26.8898L93.4097 25.1798L90.6897 20.4798L87.6897 22.1898ZM94.3597 18.3498L97.0797 23.0598L100.08 21.3498L97.3697 16.6498L94.3597 18.3498ZM101.01 14.5198L103.73 19.2198L106.73 17.5098L104.02 12.7998L101.01 14.5198Z" fill="white"/>
</svg>
